<?xml version="1.0" encoding="UTF-8"?>
<!-- Generator: Adobe Illustrator 27.0.0, SVG Export Plug-In . SVG Version: 6.00 Build 0)  -->
<svg version="1.1" id="Ebene_1" xmlns="http://www.w3.org/2000/svg" xmlns:xlink="http://www.w3.org/1999/xlink" x="0px" y="0px" viewBox="0 0 1000 1000" style="enable-background:new 0 0 1000 1000;" xml:space="preserve">
<style type="text/css">
	.st0{fill-rule:evenodd;clip-rule:evenodd;}
</style>
<g id="Ebene_1_00000037692021676124057670000002478683229029814671_">
	<path id="Ellipse-Copy-Difference-Union-2" class="st0" d="M500,15.1C232.2,15.1,15.1,232.2,15.1,500S232.2,984.9,500,984.9   S984.9,767.8,984.9,500S767.8,15.1,500,15.1z M241.7,165H544c10.4-16.6,29-27.7,50.1-27.7c32.7,0,59.2,26.4,59.2,59.2   s-26.5,59.1-59.2,59.1c-21.5,0-40.3-11.5-50.7-28.7H209v578.4c0,0.6,0,1.1-0.1,1.7c29.8,28.2,63.6,52.1,100.5,70.8V627.9   c0-0.5,0-0.9,0-1.5s0.1-0.9,0.1-1.5s0.1-0.9,0.2-1.5c0.1-0.5,0.2-0.9,0.3-1.5c0.1-0.5,0.2-0.9,0.3-1.5c0.1-0.5,0.3-0.9,0.4-1.5   s0.3-0.9,0.5-1.5s0.4-0.9,0.5-1.4c0.2-0.5,0.4-0.9,0.6-1.4c0.2-0.4,0.5-0.8,0.6-1.4c0.2-0.5,0.5-0.8,0.7-1.3   c0.3-0.4,0.5-0.8,0.7-1.3c0.3-0.4,0.6-0.7,0.8-1.3c0.3-0.4,0.6-0.7,0.8-1.2c0.3-0.4,0.6-0.7,0.9-1.2c0.3-0.4,0.6-0.7,0.9-1.1   c0.3-0.3,0.6-0.6,1.1-1.1c0.4-0.3,0.7-0.6,1.2-0.9c0.4-0.3,0.7-0.6,1.2-0.9c0.4-0.3,0.7-0.6,1.2-0.8c0.4-0.3,0.8-0.6,1.3-0.7   c0.4-0.3,0.8-0.5,1.3-0.7c0.5-0.2,0.8-0.5,1.4-0.6c0.5-0.1,0.8-0.4,1.4-0.6c0.5-0.2,0.9-0.4,1.4-0.6c0.5-0.2,0.9-0.3,1.5-0.5   s0.9-0.3,1.5-0.4c0.5-0.1,0.9-0.3,1.5-0.4c0.5-0.1,0.9-0.2,1.5-0.3c0.5-0.1,0.9-0.2,1.5-0.2s0.9-0.1,1.5-0.2c0.5,0,0.9-0.1,1.5-0.1   h104.5c10.4-16.6,29-27.7,50.1-27.7c32.7,0,59.2,26.4,59.2,59.2c0,32.7-26.4,59.2-59.2,59.2c-21.5,0-40.3-11.5-50.7-28.7h-72.4v240   c0,1.4-0.1,2.7-0.3,4.1c40.9,12.9,84.3,19.9,129.2,19.9c40.2,0,79.2-5.6,116.1-16.1V586.4c-16.5-10.4-27.5-28.9-27.5-49.9   c0-32.7,26.4-59.2,59.2-59.2c32.7,0,59.2,26.4,59.2,59.2c0,21.6-11.6,40.6-29,50.9v296.4c28.4-13.2,55.2-29.5,79.9-48.5V536.9   c0-0.5,0-0.9,0-1.5s0.1-0.9,0.1-1.5s0.1-0.9,0.2-1.5c0.1-0.5,0.2-0.9,0.3-1.5c0.1-0.5,0.2-0.9,0.3-1.5s0.3-0.9,0.4-1.5   c0.2-0.5,0.3-0.9,0.5-1.5c0.2-0.5,0.3-0.9,0.5-1.5c0.2-0.5,0.4-0.9,0.6-1.4c0.2-0.4,0.5-0.8,0.6-1.4c0.2-0.5,0.5-0.8,0.7-1.3   c0.2-0.4,0.5-0.8,0.7-1.3c0.3-0.4,0.6-0.8,0.8-1.3c0.2-0.4,0.6-0.7,0.8-1.2c0.3-0.4,0.6-0.7,0.9-1.2c0.3-0.4,0.6-0.7,1.1-1.1   c0.4-0.3,0.6-0.6,1.1-1.1c0.4-0.3,0.7-0.6,1.2-0.9c0.4-0.3,0.7-0.6,1.2-0.9c0.4-0.3,0.7-0.6,1.3-0.8c0.4-0.3,0.8-0.6,1.3-0.7   c0.4-0.2,0.8-0.5,1.3-0.7c0.4-0.3,0.8-0.5,1.4-0.6c0.5-0.2,0.8-0.4,1.4-0.6c0.5-0.2,0.9-0.4,1.4-0.6c0.5-0.2,0.9-0.4,1.5-0.5   c0.5-0.2,0.9-0.3,1.5-0.4c0.5-0.1,0.9-0.2,1.5-0.4c0.5-0.1,0.9-0.2,1.5-0.3c0.5-0.1,0.9-0.1,1.5-0.2s0.9-0.1,1.5-0.1   s0.9-0.1,1.5-0.1h134.8c0-1.9,0-4,0-5.9c0-105.9-38.9-202.7-103.2-276.9v131.6c0,0.5,0,0.9,0,1.6c0,0.5-0.1,0.9-0.1,1.6   c0,0.6-0.1,0.9-0.2,1.5c-0.1,0.5-0.2,0.9-0.3,1.5c-0.1,0.5-0.2,0.9-0.3,1.5c-0.1,0.5-0.3,0.9-0.4,1.5c-0.2,0.5-0.3,0.9-0.5,1.5   s-0.4,0.9-0.6,1.5s-0.4,0.9-0.6,1.4c-0.2,0.5-0.5,0.8-0.6,1.4c-0.1,0.5-0.5,0.8-0.7,1.4c-0.3,0.5-0.5,0.8-0.7,1.3   c-0.3,0.4-0.6,0.8-0.8,1.3c-0.3,0.4-0.6,0.7-0.9,1.2c-0.3,0.4-0.6,0.7-0.9,1.2c-0.3,0.4-0.6,0.7-1.1,1.1c-0.4,0.3-0.7,0.6-1.1,1.1   c-0.4,0.4-0.7,0.6-1.2,0.9c-0.4,0.3-0.7,0.6-1.2,0.9c-0.4,0.3-0.7,0.6-1.3,0.8c-0.4,0.3-0.8,0.6-1.3,0.7c-0.5,0.3-0.8,0.5-1.4,0.7   c-0.5,0.2-0.8,0.5-1.4,0.6c-0.5,0.2-0.9,0.4-1.4,0.6c-0.5,0.2-0.9,0.4-1.5,0.6s-0.9,0.3-1.5,0.5s-0.9,0.3-1.5,0.4   c-0.5,0.1-0.9,0.2-1.5,0.3c-0.5,0.1-0.9,0.2-1.5,0.3c-0.5,0.1-0.9,0.1-1.6,0.2c-0.6,0.1-0.9,0.1-1.6,0.1c-0.5,0-0.9,0-1.6,0l0,0   c-0.3,0-0.6,0-0.8,0H371.4v62.9c17.3,10.3,28.8,29.2,28.8,50.8c0,32.7-26.4,59.2-59.2,59.2s-59-26.5-59-59.3   c0-21.1,11-39.6,27.5-50v-94.6c0-0.5,0-0.9,0-1.5c0-0.5,0.1-0.9,0.1-1.5s0.1-0.9,0.2-1.5s0.2-0.9,0.3-1.5s0.2-0.9,0.3-1.5   s0.3-0.9,0.4-1.5s0.3-0.9,0.5-1.5s0.4-0.9,0.5-1.4c0.2-0.5,0.4-0.9,0.6-1.4c0.2-0.4,0.5-0.8,0.6-1.4c0.2-0.5,0.5-0.8,0.7-1.4   c0.3-0.5,0.5-0.8,0.7-1.3c0.3-0.4,0.6-0.8,0.8-1.3c0.3-0.4,0.6-0.7,0.8-1.2c0.3-0.4,0.6-0.7,0.9-1.2c0.3-0.4,0.6-0.7,0.9-1.1   c0.3-0.3,0.6-0.6,1.1-1.1c0.4-0.4,0.7-0.6,1.2-0.9c0.4-0.3,0.7-0.6,1.2-0.9c0.4-0.3,0.7-0.6,1.2-0.8c0.4-0.3,0.8-0.6,1.3-0.7   c0.4-0.3,0.8-0.5,1.3-0.7c0.5-0.2,0.8-0.5,1.4-0.6s0.8-0.4,1.4-0.6c0.5-0.2,0.9-0.4,1.4-0.6c0.5-0.2,0.9-0.4,1.5-0.5   c0.5-0.1,0.9-0.3,1.5-0.4s0.9-0.3,1.5-0.4s0.9-0.2,1.5-0.3c0.5-0.1,0.9-0.2,1.5-0.2s0.9-0.1,1.5-0.1s0.9-0.1,1.5-0.1l0,0h418.4   V167.9c0-0.9,0-1.9,0.1-2.8c-71.4-55.4-160.9-88.2-258.1-88.2S313.1,109.8,241.7,165L241.7,165z M76.9,500   c0-86.3,25.8-166.6,70.2-233.3v466.8C102.7,666.6,76.9,586.3,76.9,500L76.9,500z M917.6,567.7h-98V777   C870.1,719,904.8,647.2,917.6,567.7z"/>
</g>
</svg>